Coordinates
version=1
nRows=23
nColumns=30
inDegrees=yes

Units are S.I. units (second, meters, Newtons, ...)
Angles are in degrees.

endheader
time	floatyaw	floatroll	floatpitch	floatx	floaty	floatz	pro_sup_l	deviation_l	flexion_l	cmc_flexion_l	cmc_abduction_l	mp_flexion_l	ip_flexion_l	2mcp_flexion_l	2mcp_abduction_l	2pm_flexion_l	2md_flexion_l	3mcp_flexion_l	3mcp_abduction_l	3pm_flexion_l	3md_flexion_l	4mcp_flexion_l	4mcp_abduction_l	4pm_flexion_l	4md_flexion_l	5mcp_flexion_l	5mcp_abduction_l	5pm_flexion_l	5md_flexion_l
-0.995000	-0.679314	-3.115271	87.889519	-0.009098	-0.228374	0.003646	87.360325	0.297375	-4.916470	26.308039	0.309039	-18.978851	-32.660960	16.485758	5.811756	33.844257	20.466185	3.974231	3.830921	38.718029	21.396582	-8.008281	-3.340215	58.040168	28.758053	-23.852784	-7.068636	67.672147	38.157658
-0.985000	-0.679314	-3.115271	87.889519	-0.009095	-0.228430	0.003673	87.391347	0.296190	-4.951110	26.357265	0.289389	-19.002162	-32.695865	16.450373	5.814168	33.957046	20.430644	3.990858	3.847600	38.742926	21.334131	-7.980306	-3.350647	58.076836	28.647157	-23.881513	-7.092523	67.810319	38.075743
-0.975000	-0.679314	-3.115271	87.889519	-0.009094	-0.228494	0.003697	87.401288	0.289455	-4.990220	26.397711	0.308092	-19.017749	-32.735807	16.427723	5.821510	34.044123	20.424305	4.010180	3.867896	38.756708	21.302551	-7.945295	-3.367293	58.085818	28.568030	-23.890504	-7.094795	67.963661	37.959479
-0.965000	-0.679314	-3.115271	87.889519	-0.009094	-0.228556	0.003718	87.389981	0.278705	-5.025998	26.421680	0.355313	-19.022468	-32.778148	16.420111	5.830366	34.084948	20.453920	4.031483	3.888012	38.748160	21.312384	-7.910096	-3.389010	58.058382	28.543920	-23.882534	-7.077940	68.107187	37.833695
-0.955000	-0.679314	-3.115271	87.889519	-0.009097	-0.228602	0.003734	87.363831	0.267153	-5.049573	26.427207	0.409632	-19.015466	-32.816910	16.422559	5.838476	34.074382	20.510548	4.049562	3.903622	38.715792	21.355851	-7.883907	-3.413818	57.999211	28.572715	-23.861503	-7.045156	68.219962	37.716843
-0.945000	-0.679314	-3.115271	87.889519	-0.009105	-0.228625	0.003741	87.331771	0.257739	-5.056113	26.418063	0.451585	-18.998769	-32.845865	16.428964	5.846118	34.021724	20.573550	4.059707	3.912184	38.666571	21.411663	-7.870454	-3.438845	57.920600	28.631013	-23.828879	-7.000192	68.282952	37.619538
-0.935000	-0.679314	-3.115271	87.889519	-0.009117	-0.228627	0.003740	87.301152	0.251540	-5.047779	26.401236	0.474001	-18.976889	-32.861603	16.436603	5.855519	33.945310	20.620572	4.061816	3.914127	38.611407	21.456265	-7.864630	-3.460568	57.835235	28.688403	-23.784621	-6.947994	68.280478	37.547809
-0.925000	-0.679314	-3.115271	87.889519	-0.009136	-0.228620	0.003735	87.275268	0.247297	-5.032609	26.383091	0.483942	-18.955682	-32.864809	16.447114	5.868844	33.864215	20.637895	4.061442	3.912108	38.559067	21.474962	-7.855758	-3.475402	57.751044	28.723781	-23.731035	-6.895151	68.204655	37.508068
-0.915000	-0.679314	-3.115271	87.889519	-0.009161	-0.228614	0.003734	87.253451	0.242350	-5.020096	26.366380	0.496004	-18.940548	-32.859118	16.464540	5.886096	33.789988	20.625770	4.067232	3.908911	38.511707	21.467075	-7.834754	-3.480576	57.670271	28.734365	-23.675482	-6.849616	68.059323	37.508929
-0.905000	-0.679314	-3.115271	87.889519	-0.009191	-0.228620	0.003743	87.233548	0.234517	-5.016259	26.349985	0.521408	-18.934308	-32.848355	16.492114	5.904225	33.722471	20.596487	4.085860	3.905626	38.465230	21.443473	-7.800329	-3.475099	57.593001	28.732897	-23.629193	-6.819730	67.861027	37.556989
-0.895000	-0.679314	-3.115271	87.889519	-0.009225	-0.228637	0.003765	87.215088	0.223839	-5.021129	26.331367	0.559569	-18.935735	-32.833922	16.529344	5.918111	33.652723	20.567044	4.117001	3.901495	38.414803	21.419279	-7.760634	-3.460324	57.522544	28.736245	-23.602985	-6.812596	67.636757	37.649224
-0.885000	-0.679314	-3.115271	87.889519	-0.009260	-0.228657	0.003792	87.200767	0.213041	-5.029849	26.309870	0.597379	-18.939952	-32.814406	16.570579	5.923027	33.572077	20.551069	4.151508	3.895461	38.361828	21.406540	-7.729588	-3.439707	57.468229	28.753702	-23.602872	-6.831899	67.419082	37.768895
-0.875000	-0.679314	-3.115271	87.889519	-0.009292	-0.228673	0.003813	87.195022	0.206322	-5.036396	26.288782	0.616807	-18.941152	-32.788367	16.605877	5.917148	33.482063	20.554207	4.174673	3.888042	38.317044	21.410306	-7.720003	-3.417744	57.442746	28.782251	-23.628106	-6.875766	67.239409	37.889921
-0.865000	-0.679314	-3.115271	87.889519	-0.009316	-0.228678	0.003817	87.200731	0.207187	-5.037420	26.275110	0.605882	-18.936183	-32.758500	16.624114	5.902551	33.398508	20.574091	4.173201	3.881823	38.297077	21.428525	-7.737426	-3.398635	57.455585	28.810042	-23.672298	-6.935962	67.121047	37.987549
-0.855000	-0.679314	-3.115271	87.889519	-0.009328	-0.228676	0.003797	87.216577	0.216637	-5.033639	26.277013	0.565707	-18.926289	-32.733036	16.616896	5.884025	33.346380	20.603158	4.141652	3.879943	38.316447	21.454118	-7.778234	-3.385226	57.507283	28.823845	-23.726655	-6.999638	67.074592	38.047642
-0.845000	-0.679314	-3.115271	87.889519	-0.009327	-0.228672	0.003757	87.237119	0.232795	-5.027975	26.299861	0.509177	-18.915387	-32.722048	16.581289	5.866525	33.347813	20.632176	4.084433	3.883710	38.379841	21.477821	-7.832412	-3.378506	57.588020	28.815394	-23.783271	-7.053575	67.097298	38.068519
-0.835000	-0.679314	-3.115271	87.889519	-0.009313	-0.228670	0.003702	87.255539	0.251962	-5.022369	26.343113	0.453572	-18.906439	-32.731436	16.520827	5.853040	33.410019	20.653532	4.013200	3.891348	38.478554	21.491533	-7.887902	-3.377664	57.680155	28.784522	-23.836167	-7.089082	67.175699	38.056406
-0.825000	-0.679314	-3.115271	87.889519	-0.009289	-0.228667	0.003641	87.267062	0.270215	-5.016382	26.400269	0.413563	-18.899484	-32.760217	16.445919	5.844256	33.519535	20.664020	3.942883	3.899103	38.592107	21.491978	-7.932814	-3.380692	57.761988	28.739721	-23.879316	-7.104789	67.289413	38.020545
-0.815000	-0.679314	-3.115271	87.889519	-0.009260	-0.228656	0.003582	87.270742	0.284606	-5.008906	26.461900	0.399033	-18.893153	-32.803287	16.373779	5.839852	33.645842	20.666459	3.888755	3.903897	38.694261	21.483330	-7.955369	-3.385443	57.811713	28.696710	-23.903995	-7.105546	67.415326	37.971855
-0.805000	-0.679314	-3.115271	87.889519	-0.009230	-0.228631	0.003527	87.268932	0.293769	-5.000798	26.519238	0.415789	-18.887742	-32.855751	16.325012	5.839845	33.753530	20.668796	3.863351	3.905283	38.762314	21.476428	-7.945492	-3.390748	57.813445	28.673937	-23.900107	-7.098131	67.533357	37.922880
-0.795000	-0.679314	-3.115271	87.889519	-0.009200	-0.228592	0.003480	87.265567	0.298181	-4.995142	26.565775	0.464376	-18.886264	-32.913624	16.314676	5.844494	33.818303	20.679915	3.871354	3.905019	38.787145	21.483304	-7.900681	-3.396960	57.765778	28.684275	-23.863427	-7.086608	67.633745	37.884333
-0.785000	-0.679314	-3.115271	87.889519	-0.009171	-0.228543	0.003443	87.264722	0.299993	-4.994462	26.596801	0.536441	-18.892199	-32.970515	16.341855	5.853046	33.838799	20.703524	3.904747	3.904772	38.778829	21.509029	-7.832328	-3.405499	57.687844	28.725850	-23.803631	-7.070297	67.721574	37.858130
-0.775000	-0.679314	-3.115271	87.889519	-0.009142	-0.228495	0.003418	87.269863	0.302035	-4.997753	26.608750	0.613805	-18.906124	-33.015111	16.386732	5.863078	33.836538	20.733872	3.943920	3.904102	38.762589	21.546122	-7.764720	-3.417602	57.615096	28.778573	-23.744111	-7.045309	67.812763	37.833220
